<?xml version="1.0" encoding="utf-8"?>
<!-- Generator: Adobe Illustrator 22.1.0, SVG Export Plug-In . SVG Version: 6.00 Build 0)  -->
<svg version="1.1" id="Capa_1" xmlns="http://www.w3.org/2000/svg" xmlns:xlink="http://www.w3.org/1999/xlink" x="0px" y="0px"
	 viewBox="0 0 411.9 149.2" style="enable-background:new 0 0 411.9 149.2;" xml:space="preserve">
<style type="text/css">
	.st0{fill:#FFFFFF;}
	.st1{fill:url(#SVGID_1_);}
	.st2{fill:url(#SVGID_2_);}
</style>
<g>
	<polygon class="st0" points="51.9,146.8 5.3,1.9 43.2,1.9 70,93.8 	"/>
	<linearGradient id="SVGID_1_" gradientUnits="userSpaceOnUse" x1="82.3644" y1="147.2864" x2="27.4536" y2="32.3171">
		<stop  offset="3.061220e-02" style="stop-color:#532C3D"/>
		<stop  offset="0.8209" style="stop-color:#532C3D;stop-opacity:0"/>
	</linearGradient>
	<polygon class="st1" points="51.9,146.8 5.3,1.9 43.2,1.9 70,93.8 	"/>
	<polygon class="st0" points="135.4,1.9 158.6,94.8 187.4,1.9 225.3,1.9 178.9,146.8 140.5,146.8 117,55.9 	"/>
	<linearGradient id="SVGID_2_" gradientUnits="userSpaceOnUse" x1="114.356" y1="3.5986" x2="148.6754" y2="106.5563">
		<stop  offset="3.061220e-02" style="stop-color:#532C3D"/>
		<stop  offset="0.8209" style="stop-color:#532C3D;stop-opacity:0"/>
	</linearGradient>
	<polygon class="st2" points="178.9,146.8 140.5,146.8 117,55.9 135.4,1.9 158.6,94.8 	"/>
	<polygon class="st0" points="101.5,1.9 51.9,146.8 86,146.8 135.4,1.9 	"/>
	<g>
		<g>
			<path class="st0" d="M235.8,56.3h5.2l0.3,10.4l6.2-10.5h4.3l0.7,10.5l5.9-10.4h5.4L253,74.4h-4.5l-0.8-10.2l-6.3,10.2h-4.4
				L235.8,56.3z"/>
			<path class="st0" d="M266.5,56.3h14.4l-1.2,4.2h-9.5l-0.7,2.7h8.6l-1.1,3.9h-8.6l-0.8,2.9h9.6l-1.1,4.2h-14.5L266.5,56.3z"/>
			<path class="st0" d="M285,56.3h14.4l-1.2,4.2h-9.4l-0.7,2.7h8.6l-1.1,3.9H287l-0.8,2.9h9.6l-1.1,4.2h-14.5L285,56.3z"/>
			<path class="st0" d="M303.4,56.3h4.6l4.6,10l2.7-10h5l-4.8,18h-4.4l-4.9-10.3l-2.8,10.3h-5L303.4,56.3z"/>
			<path class="st0" d="M318.9,71.4l3.4-3c0.9,1.3,1.8,1.7,2.9,1.7c0.7,0,1.4-0.3,1.9-0.8c0.5-0.5,0.8-1.2,1.4-3.1l2.7-10h5l-2.9,11
				c-0.7,2.6-1.4,4.1-2.7,5.3c-1.3,1.3-3.1,2-5.5,2C322.5,74.5,320.2,73.4,318.9,71.4z"/>
			<path class="st0" d="M336.8,66.5c0-5.5,4.5-10.6,10.7-10.6c5.1,0,8.6,3.5,8.6,8.1c0,5.5-4.5,10.6-10.7,10.6
				C340.3,74.6,336.8,71.1,336.8,66.5z M351,64.4c0-2.3-1.4-4-3.9-4c-3.1,0-5.2,3.1-5.2,5.7c0,2.3,1.4,4,3.9,4
				C349,70.1,351,67,351,64.4z"/>
			<path class="st0" d="M362,67.3l-3.6-11h5.4l1.8,6.7l5.4-6.7h6l-10,11.6l-1.7,6.4h-5L362,67.3z"/>
		</g>
		<g>
			<path class="st0" d="M223.7,92.6h5l-4.8,18h-5L223.7,92.6z"/>
			<path class="st0" d="M233.2,92.6h4.6l4.6,10l2.7-10h5l-4.8,18H241l-4.9-10.3l-2.8,10.3h-5L233.2,92.6z"/>
			<path class="st0" d="M257.1,97h-5.4l1.2-4.4h15.7l-1.2,4.4h-5.4l-3.6,13.6h-5L257.1,97z"/>
			<path class="st0" d="M271.4,92.6h14.4l-1.2,4.2h-9.4l-0.7,2.7h8.6l-1.1,3.9h-8.6l-0.8,2.8h9.6l-1.1,4.2h-14.5L271.4,92.6z"/>
			<path class="st0" d="M289.9,92.6h5l-3.6,13.6h8.6l-1.2,4.4H285L289.9,92.6z"/>
			<path class="st0" d="M306.3,92.6h5l-3.6,13.6h8.6l-1.2,4.4h-13.6L306.3,92.6z"/>
			<path class="st0" d="M322.8,92.6h5l-4.8,18h-5L322.8,92.6z"/>
			<path class="st0" d="M328.7,103c0-5.7,4.7-10.8,11.5-10.8c3.6,0,6.2,1.5,7.4,3.1l-3.3,3.2c-1.1-1.1-2.5-1.8-4.4-1.8
				c-3.6,0-6.1,2.8-6.1,6.1c0,2.5,1.8,3.8,4,3.8c1,0,1.8-0.2,2.4-0.5l0.7-2.4h-3.5l0.9-3.6h8.2l-2.6,9.1c-1.8,1-4.1,1.8-6.7,1.8
				C333.1,110.9,328.7,108.5,328.7,103z"/>
			<path class="st0" d="M352.7,92.6h14.4l-1.2,4.2h-9.4l-0.7,2.7h8.6l-1.1,3.9h-8.6l-0.8,2.8h9.6l-1.1,4.2h-14.5L352.7,92.6z"/>
			<path class="st0" d="M371.2,92.6h4.6l4.6,10l2.7-10h5l-4.8,18H379l-4.9-10.3l-2.8,10.3h-5L371.2,92.6z"/>
			<path class="st0" d="M395.1,97h-5.4l1.2-4.4h15.7l-1.2,4.4h-5.4l-3.6,13.6h-5L395.1,97z"/>
		</g>
		<g>
			<path class="st0" d="M212.9,129h4.6l4.6,10l2.7-10h5l-4.8,18h-4.4l-4.9-10.3l-2.8,10.3h-5L212.9,129z"/>
			<path class="st0" d="M234.3,129h14.4l-1.2,4.2h-9.4l-0.7,2.7h8.6l-1.1,3.9h-8.6l-0.8,2.9h9.6l-1.1,4.2h-14.5L234.3,129z"/>
			<path class="st0" d="M255.5,133.3h-5.4l1.2-4.4H267l-1.2,4.4h-5.4l-3.6,13.6h-5L255.5,133.3z"/>
			<path class="st0" d="M269,129h5.2l0.3,10.4l6.2-10.5h4.3l0.7,10.5l5.9-10.4h5.4l-10.9,18.1h-4.5l-0.8-10.2l-6.3,10.2h-4.4
				L269,129z"/>
			<path class="st0" d="M295.9,139.2c0-5.5,4.5-10.6,10.7-10.6c5.1,0,8.6,3.5,8.6,8.1c0,5.5-4.5,10.6-10.7,10.6
				C299.3,147.3,295.9,143.8,295.9,139.2z M310.1,137.1c0-2.3-1.4-4-3.9-4c-3.1,0-5.2,3.1-5.2,5.7c0,2.3,1.4,4,3.9,4
				C308.1,142.8,310.1,139.7,310.1,137.1z"/>
			<path class="st0" d="M321,129h6.8c3,0,5,0.7,6.2,1.9c0.9,1,1.4,2.2,1.4,3.7c0,3-1.7,5.4-5.4,6.4l2.8,6.1h-5.5l-2.4-5.4h-2.2
				l-1.5,5.4h-5L321,129z M326.5,137.6c2.2,0,3.7-0.9,3.7-2.5c0-0.5-0.2-0.9-0.5-1.2c-0.4-0.4-1.2-0.6-2.2-0.6h-2.7l-1.2,4.3H326.5z
				"/>
			<path class="st0" d="M340.6,129h5l-2,7.2l7.4-7.2h6.3l-8.5,7.9l4,10.1h-5.4L345,140l-3.1,2.9l-1.1,4.1h-5L340.6,129z"/>
		</g>
	</g>
</g>
</svg>
